HIERARCHY
ROOT Model_Hips
{
	OFFSET 0.000000 96.915077 0.000000
	CHANNELS 6 Xposition Yposition Zposition Xrotation Yrotation Zrotation
	JOINT Model_Spine
	{
		OFFSET 0.000000 11.137703 -1.289900
		CHANNELS 3 Xrotation Yrotation Zrotation
		JOINT Model_Spine1
		{
			OFFSET 0.000000 12.993942 -1.504922
			CHANNELS 3 Xrotation Yrotation Zrotation
			JOINT Model_Spine2
			{
				OFFSET 0.000000 14.850220 -1.719911
				CHANNELS 3 Xrotation Yrotation Zrotation
				JOINT Model_Neck
				{
					OFFSET 0.000000 16.706543 -1.934903
					CHANNELS 3 Xrotation Yrotation Zrotation
					JOINT Model_Head
					{
						OFFSET 0.000000 10.471298 2.002100
						CHANNELS 3 Xrotation Yrotation Zrotation
						JOINT Model_HeadTop_End
						{
							OFFSET 0.000000 20.842606 3.985100
							CHANNELS 3 Xrotation Yrotation Zrotation
							End Site
							{
								OFFSET 0.000000 21.220154 0.000000
							}
						}
					}
				}
				JOINT Model_LeftShoulder
				{
					OFFSET 7.008500 14.768600 -1.919946
					CHANNELS 3 Xrotation Yrotation Zrotation
					JOINT Model_LeftArm
					{
						OFFSET 14.126271 -3.718048 0.029937
						CHANNELS 3 Xrotation Yrotation Zrotation
						JOINT Model_LeftForeArm
						{
							OFFSET 28.282801 0.000000 0.000000
							CHANNELS 3 Xrotation Yrotation Zrotation
							JOINT Model_LeftHand
							{
								OFFSET 26.204689 0.000000 0.000000
								CHANNELS 3 Xrotation Yrotation Zrotation
								End Site
								{
									OFFSET 26.204704 0.000000 0.000000
								}
							}
						}
					}
				}
				JOINT Model_RightShoulder
				{
					OFFSET -7.008500 14.768555 -1.949840
					CHANNELS 3 Xrotation Yrotation Zrotation
					JOINT Model_RightArm
					{
						OFFSET -14.126281 -3.718018 -0.029932
						CHANNELS 3 Xrotation Yrotation Zrotation
						JOINT Model_RightForeArm
						{
							OFFSET -28.283798 0.000000 -0.000001
							CHANNELS 3 Xrotation Yrotation Zrotation
							JOINT Model_RightHand
							{
								OFFSET -26.204193 0.000000 -0.000001
								CHANNELS 3 Xrotation Yrotation Zrotation
								End Site
								{
									OFFSET -26.204208 0.000000 -0.000001
								}
							}
						}
					}
				}
			}
		}
	}
	JOINT Model_LeftUpLeg
	{
		OFFSET 8.327700 -6.193199 -0.402800
		CHANNELS 3 Xrotation Yrotation Zrotation
		JOINT Model_LeftLeg
		{
			OFFSET 0.735802 -42.108742 -0.610721
			CHANNELS 3 Xrotation Yrotation Zrotation
			JOINT Model_LeftFoot
			{
				OFFSET -0.735806 -36.833748 -0.172876
				CHANNELS 3 Xrotation Yrotation Zrotation
				JOINT Model_LeftToeBase
				{
					OFFSET -0.565857 -11.977769 16.297714
					CHANNELS 3 Xrotation Yrotation Zrotation
					JOINT Model_LeftToe_End
					{
						OFFSET -0.111712 -0.312793 7.857784
						CHANNELS 3 Xrotation Yrotation Zrotation
						End Site
						{
							OFFSET -0.111712 -0.312793 7.857784
						}
					}
				}
			}
		}
	}
	JOINT Model_RightUpLeg
	{
		OFFSET -8.327700 -6.193199 -0.516500
		CHANNELS 3 Xrotation Yrotation Zrotation
		JOINT Model_RightLeg
		{
			OFFSET -0.735785 -42.108738 -0.434061
			CHANNELS 3 Xrotation Yrotation Zrotation
			JOINT Model_RightFoot
			{
				OFFSET 0.735776 -36.833748 -0.021630
				CHANNELS 3 Xrotation Yrotation Zrotation
				JOINT Model_RightToeBase
				{
					OFFSET 0.565817 -11.977745 15.903093
					CHANNELS 3 Xrotation Yrotation Zrotation
					JOINT Model_RightToe_End
					{
						OFFSET 0.111702 -0.312791 7.811342
						CHANNELS 3 Xrotation Yrotation Zrotation
						End Site
						{
							OFFSET 0.111702 -0.312791 7.811342
						}
					}
				}
			}
		}
	}
}
MOTION
Frames: 12
Frame Time: 0.016667
-299.202972 93.101440 55.508232 174.999022 1.954795 187.112814 2.892919 -5.065914 0.317622 5.918713 -10.115861 1.456155 5.918705 -10.115856 1.456153 1.648257 0.573357 0.680799 1.648262 0.573360 0.680801 0.000000 0.000000 -0.000001 -4.292356 -17.680278 -12.307495 -2.522219 -26.953731 -60.230691 -13.035739 -96.619084 -1.619414 -0.000001 0.000000 0.000001 -0.430831 -5.772963 18.466695 34.216150 22.023793 48.229024 98.385214 59.291219 -112.212679 0.000001 0.000002 -0.000001 2.184445 10.442753 -0.558287 34.101710 -1.939473 -1.735226 -12.158056 1.274477 -7.464090 -31.810636 1.610446 6.428642 -0.000000 0.000000 0.000000 -30.262181 0.982528 5.618669 64.026658 -15.012727 -6.663426 -6.485180 0.249681 -6.247221 -25.077388 -0.043650 8.026524 -0.000001 -0.000001 0.000000 
-299.290955 93.845741 52.727207 174.058601 3.790010 186.228127 2.725281 -5.221905 0.582367 5.589876 -10.401357 1.820437 5.589886 -10.401358 1.820433 1.254613 0.696267 0.789767 1.254632 0.696282 0.789762 0.000001 0.000000 -0.000000 -4.390951 -18.119245 -12.543171 -1.319457 -28.738178 -58.842428 -11.387120 -98.158609 0.504371 -0.000000 -0.000000 -0.000001 -0.429242 -6.078709 17.583574 34.515275 20.717912 48.139624 99.305343 59.421375 -113.380696 0.000000 0.000000 -0.000001 2.393209 11.102683 0.478149 33.438479 -3.323182 -1.572686 -6.173258 0.654264 -8.129090 -32.904713 1.899612 1.970847 0.000000 0.000000 -0.000000 -30.545528 -0.392591 7.674687 56.511329 -12.485257 -6.444047 -9.046743 0.506755 -7.014293 -19.306988 0.975398 4.168146 0.000001 -0.000000 0.000000 
-299.376465 94.273682 49.917221 173.101951 5.593663 185.716204 2.519740 -5.273721 0.775949 5.179738 -10.497679 2.070483 5.179732 -10.497676 2.070483 0.804540 0.771941 0.892073 0.804539 0.771940 0.892078 0.000002 0.000001 -0.000000 -4.498475 -18.522822 -12.818735 0.107692 -30.296643 -57.231057 -11.392010 -99.765452 1.085043 -0.000001 0.000000 0.000001 -0.427235 -6.390721 16.813455 34.413922 19.144885 48.247258 100.273468 59.364541 -114.537648 -0.000001 0.000002 -0.000001 3.161377 11.336016 0.996365 31.989153 -4.129723 -1.268906 -0.222247 0.015117 -9.404766 -38.507548 1.549080 2.852004 -0.000001 -0.000001 0.000000 -30.430545 -1.652857 9.210629 48.123139 -9.488434 -5.737494 -8.577417 0.566290 -7.687769 -15.068639 1.199417 1.258682 0.000001 0.000000 0.000000 
-299.445099 94.482391 47.083672 172.277288 7.230566 185.655306 2.307364 -5.278973 0.870234 4.751407 -10.520382 2.164531 4.751406 -10.520369 2.164527 0.404189 0.804853 0.995947 0.404221 0.804854 0.995955 -0.000001 0.000000 -0.000001 -4.586840 -18.842569 -13.041637 1.460967 -31.481486 -55.730754 -10.832526 -101.268292 2.270088 -0.000002 -0.000000 -0.000001 -0.425940 -6.706162 16.119207 33.989115 17.369526 48.577979 101.353949 59.321149 -115.728526 0.000002 -0.000000 -0.000001 4.900341 11.182375 0.895831 29.098809 -3.889619 -0.875165 6.384550 -0.823847 -11.342544 -44.493567 1.820268 3.576307 0.000000 -0.000000 -0.000000 -29.521044 -2.736854 10.165896 38.860648 -7.068458 -4.208481 -6.212844 0.470580 -9.225731 -11.788823 1.449103 -0.846405 0.000000 0.000001 0.000000 
-299.476471 94.478737 44.248562 171.728304 8.650423 186.052263 2.120593 -5.260646 0.840965 4.368763 -10.507517 2.059255 4.368767 -10.507505 2.059248 0.121134 0.798706 1.072115 0.121138 0.798703 1.072118 -0.000000 0.000002 -0.000001 -4.660889 -19.054375 -13.243580 2.558796 -32.239896 -54.590717 -8.159905 -102.423434 5.426266 -0.000000 0.000000 0.000000 -0.429034 -7.017783 15.422263 33.410249 15.466075 49.125876 102.546876 59.378311 -116.949695 0.000001 -0.000001 0.000000 7.369771 10.646902 0.830162 25.236934 -1.487923 -0.491853 14.305004 -2.504832 -16.915971 -50.048310 -0.373908 4.983546 -0.000000 -0.000001 -0.000000 -27.953133 -3.549466 10.828402 29.830107 -6.048480 -2.393797 -4.079699 0.268076 -11.457331 -9.160640 1.973216 -2.619094 0.000000 -0.000000 0.000000 
-299.452545 94.249535 41.429611 171.566429 9.907927 186.840836 1.988657 -5.201647 0.684003 4.088067 -10.418876 1.734587 4.088067 -10.418887 1.734590 -0.015005 0.757241 1.088985 -0.015013 0.757251 1.088985 -0.000000 0.000000 -0.000000 -4.732503 -19.140707 -13.479344 3.369521 -32.615065 -53.942652 -2.865737 -103.078476 10.903557 -0.000001 -0.000001 -0.000001 -0.438181 -7.325061 14.690270 32.889902 13.530630 49.826042 103.587154 59.342466 -117.967202 -0.000001 0.000003 0.000001 10.636140 10.042223 0.052106 21.689638 1.287984 -0.187763 20.159174 -3.985720 -19.512317 -51.079303 1.088883 3.957778 0.000001 -0.000000 0.000000 -28.459609 -4.351636 10.698758 26.784925 -6.675081 -1.100607 -3.684111 -0.025078 -8.869755 -8.137544 2.682422 -2.986193 0.000001 -0.000000 0.000000 
-299.362671 93.805748 38.628487 171.840866 11.101818 187.882713 1.930647 -5.074507 0.426615 3.946351 -10.192852 1.216997 3.946348 -10.192848 1.216992 -0.003729 0.682612 1.046366 -0.003715 0.682640 1.046359 -0.000001 -0.000000 0.000000 -4.793213 -19.076447 -13.729100 3.964551 -32.706938 -53.802414 4.515968 -103.255986 18.160551 -0.000000 0.000000 0.000001 -0.449325 -7.639939 13.984519 32.573268 11.678238 50.565963 104.030352 58.878512 -118.387655 0.000000 0.000002 -0.000000 11.823976 9.458998 -0.943265 24.895519 2.466637 -0.024341 19.741578 -3.719689 -19.113834 -41.505991 5.474637 -0.065322 0.000001 -0.000000 0.000000 -29.024298 -4.897169 10.607686 26.232086 -8.013387 -0.518970 -3.929024 -0.137993 -7.626680 -7.163956 3.200560 -3.218123 0.000000 -0.000002 -0.000000 
-299.208405 93.168900 35.830311 172.524868 12.292402 188.982141 1.948015 -4.874108 0.117518 3.950810 -9.819360 0.593844 3.950809 -9.819357 0.593841 0.151771 0.575447 0.971709 0.151763 0.575456 0.971712 -0.000001 0.000002 -0.000000 -4.811773 -18.835549 -13.885709 4.445750 -32.610540 -54.087916 12.715304 -103.030856 26.059487 0.000001 0.000001 0.000001 -0.453806 -7.976620 13.440837 32.434810 10.014974 51.225056 103.667354 57.867644 -118.005984 0.000003 -0.000002 -0.000001 13.066270 9.050479 -1.897672 28.686477 3.350608 0.099699 19.658806 -3.645739 -19.209250 -27.634104 7.786074 -5.608848 -0.000002 -0.000000 0.000000 -28.018015 -4.930694 11.084907 25.069542 -9.318819 -0.649162 -4.312932 -0.030321 -10.144293 -6.330800 3.269661 -3.099122 -0.000000 -0.000001 -0.000000 
-298.998627 92.338379 33.017086 173.535409 13.449410 189.900323 2.026659 -4.636773 -0.173592 4.080270 -9.367250 -0.001037 4.080276 -9.367257 -0.001035 0.455480 0.439494 0.898272 0.455512 0.439498 0.898278 0.000001 -0.000002 -0.000000 -4.758538 -18.415571 -13.833597 4.906876 -32.371166 -54.639341 20.787305 -102.407335 33.802056 -0.000000 0.000001 0.000000 -0.441860 -8.338576 13.204952 32.292793 8.618502 51.704874 102.709407 56.568979 -116.943931 0.000000 -0.000001 -0.000000 14.204280 8.982494 -2.495893 33.069409 3.742141 0.193567 19.907681 -3.732253 -19.661372 -7.515153 5.748525 -10.046640 -0.000002 0.000000 -0.000000 -25.501679 -4.453503 12.051429 23.188905 -10.413153 -1.170774 -4.646948 0.459660 -16.037844 -5.816578 2.766656 -2.543034 0.000000 0.000001 0.000000 
-298.798096 91.188980 30.156191 174.769351 14.480686 190.410183 2.126644 -4.423554 -0.368185 4.262258 -8.951192 -0.404227 4.262261 -8.951177 -0.404229 0.901395 0.286432 0.802730 0.901392 0.286434 0.802730 0.000001 -0.000001 -0.000001 -4.631754 -17.852323 -13.541664 5.412419 -31.971166 -55.265017 28.977088 -101.363388 41.698906 0.000000 0.000000 0.000001 -0.406193 -8.701689 13.376615 31.912058 7.545628 51.934890 101.507095 55.457584 -115.395049 0.000003 0.000001 -0.000002 14.907646 9.406011 -2.438375 38.566977 3.513417 0.338744 19.898674 -3.795471 -20.211107 -0.112375 4.345374 -5.127741 0.000000 -0.000000 -0.000002 -25.827611 -4.242202 12.428109 28.495899 -12.726691 -2.043418 -8.524428 1.719340 -18.151332 -6.090797 1.600554 -1.169379 0.000000 0.000000 0.000000 
-298.607239 89.852425 27.272507 176.123203 15.309193 190.355378 2.245927 -4.283590 -0.425897 4.493992 -8.660961 -0.540178 4.493989 -8.660956 -0.540181 1.435353 0.139957 0.724258 1.435378 0.139945 0.724260 -0.000000 -0.000002 0.000001 -4.462916 -17.208779 -13.096509 5.952555 -31.333964 -55.829789 38.977188 -99.949928 51.417094 -0.000000 -0.000000 -0.000003 -0.345989 -8.993781 13.990710 31.086431 6.853390 51.867606 100.215794 54.925946 -113.366906 0.000001 0.000000 -0.000001 15.151935 10.373054 -1.501043 44.747742 2.835316 0.597203 19.596112 -3.779719 -20.520030 -0.024504 4.372418 -5.166911 0.000001 0.000001 -0.000001 -24.976144 -3.732009 12.923949 34.595093 -14.083489 -2.051395 -15.361405 3.175195 -17.122226 -6.683838 -0.070019 -0.274118 -0.000000 -0.000002 0.000000 
-298.400330 88.466812 24.453562 177.478531 15.961261 189.692508 2.379529 -4.219570 -0.340590 4.763818 -8.506180 -0.405150 4.763819 -8.506165 -0.405154 1.983567 0.026413 0.695424 1.983572 0.026407 0.695422 -0.000000 0.000002 -0.000000 -4.300380 -16.546060 -12.664806 6.406836 -30.334813 -56.338590 53.889141 -98.354704 65.983937 0.000000 0.000000 -0.000002 -0.271360 -9.088473 15.020035 29.676981 6.607090 51.488585 98.685319 55.022361 -110.660532 0.000003 0.000001 -0.000004 14.754006 11.766842 0.417632 51.369870 1.984487 0.991295 18.915429 -3.635216 -20.426410 0.060719 4.626208 -5.431968 0.000000 -0.000000 -0.000001 -24.881431 -3.204393 14.193283 41.490715 -16.166175 -3.063313 -20.922102 3.877195 -14.848181 -8.116314 -2.011845 0.986918 0.000000 -0.000001 0.000000 
